# xmcd
#
# Track frame offsets:
#	150
#	20725
#	43410
#	67900
#	86225
#	102612
#	119332
#	138780
#	156730
#	183720
#	203130
#	224920
#	240740
#	263197
#	276497
#	291487
#	312185
#	325107
#
# Disc length: 4501 seconds
#
# Revision: 2
# Processed by: cddbd v1.5.2PL0 Copyright (c) Steve Scherf et al.
# Submitted via: audiograbber 1.83.01
#
DISCID=30119312
DTITLE=Clifton Chenier  Band - Cajun Swamp Music live
DYEAR=1900
DGENRE=Cajun
TTITLE0=1. Tu est si Jolie
TTITLE1=2. Tes Haricots Pas sale (No Salt in your snap Beans)
TTITLE2=3. You' re just fussing too much
TTITLE3=4. Boogie
TTITLE4=5. Marcher Plancher
TTITLE5=6. Here little Girl
TTITLE6=7. Release me
TTITLE7=8. Jambalaya
TTITLE8=9. I' m a Hog for you
TTITLE9=10. Louisiana two Step
TTITLE10=11. When you going to sing for me
TTITLE11=12. Who Who Who
TTITLE12=13. You promised me Love
TTITLE13=14. Black Girl
TTITLE14=15. Money
TTITLE15=16. Hush Hush
TTITLE16=17. Calinda
TTITLE17=18. Duo
EXTD=\n\n\n
EXTT0=
EXTT1=
EXTT2=
EXTT3=
EXTT4=
EXTT5=
EXTT6=
EXTT7=
EXTT8=
EXTT9=
EXTT10=
EXTT11=
EXTT12=
EXTT13=
EXTT14=
EXTT15=
EXTT16=
EXTT17=
PLAYORDER=
